<?xml version="1.0" encoding="UTF-8"?>
<!-- Generator: Adobe Illustrator 26.5.2, SVG Export Plug-In . SVG Version: 6.00 Build 0)  -->
<svg xmlns="http://www.w3.org/2000/svg" xmlns:xlink="http://www.w3.org/1999/xlink" version="1.1" id="Capa_1" x="0px" y="0px" viewBox="0 0 3840 1530" style="enable-background:new 0 0 3840 1530;" xml:space="preserve">
<style type="text/css">
	.st0{clip-path:url(#SVGID_00000049925180578868425990000001703222332726488722_);fill:#F68924;}
	.st1{clip-path:url(#SVGID_00000049925180578868425990000001703222332726488722_);fill:#FECF0C;}
	.st2{clip-path:url(#SVGID_00000049925180578868425990000001703222332726488722_);fill:#E1251B;}
</style>
<g>
	<defs>
		<rect id="SVGID_1_" width="3840" height="1530"></rect>
	</defs>
	<clipPath id="SVGID_00000183945941473378131650000007603184370628442018_">
		<use xlink:href="#SVGID_1_" style="overflow:visible;"></use>
	</clipPath>
	<path style="clip-path:url(#SVGID_00000183945941473378131650000007603184370628442018_);fill:#F68924;" d="M1789,222.5   c-232.7,3.5-426,122.1-630.2,202.7C736,592.2,199.7,599.1-231,443.1c-27.2,635.2-54.5,1270.5-81.7,1905.7   c-2.5,58.5-2.4,122.7,49.6,167.6c59.3,51.2,162.9,58,255.1,60.9c1396.1,44.8,2792.2,89.5,4188.3,134.3   c121.1-656.4,167.5-1350.9,45.4-2009.3c-39.3-212.2-138.6-488.5-416-605.3c-337-142-593.7,70.1-860.8,192.7   C2495.4,497.6,2239.5,215.6,1789,222.5"></path>
	<path style="clip-path:url(#SVGID_00000183945941473378131650000007603184370628442018_);fill:#FECF0C;" d="M3326.3,514.6   c-248.3,5.1-510.5,43.4-735.9-32.1c-125.3-41.9-230-116.9-364.5-139.8c-147.3-25.1-298.5,17.2-448.6,31.1   c-353.7,32.7-694-92.4-1014.8-205S80-49.6-262.4,22.4c42.8,759.8,85.6,1519.5,128.4,2279.3l3689.8,17.1   c122,0.6,255.8-1.8,348.3-59.2c107.1-66.5,119.7-181.1,121-283.1c4.9-363-78.6-717.6-95.3-1078.1   C3916.9,619.4,3755.3,505.9,3326.3,514.6"></path>
	<path style="clip-path:url(#SVGID_00000183945941473378131650000007603184370628442018_);fill:#E1251B;" d="M1807.8,624.1   c-380.9-53.4-746-250.2-1126.9-302.4c-381-52.2-814.1,82.2-1023.7,531c10.2,761.2,20.4,1522.5,30.6,2283.7   c1384.4,31.8,2768.8,63.6,4153.2,95.4c161.3,3.7,233.9-2352.3,35.7-2601.6c-197.2-248.1-721.9-116-958.4-85.6   C2549.3,591.9,2179.1,676.2,1807.8,624.1"></path>
</g>
</svg>
